<?xml version="1.0" encoding="UTF-8"?>
<svg version="1.1" viewBox="0 0 1920 1080" width="1920" height="1080" xmlns="http://www.w3.org/2000/svg">
<path transform="translate(674,310)" d="m0 0h7l5 3 4 5 5 12 2 4 14-10 15-8 13-4 12-2h17l15 4 11 6 10 9 4 6 4-2 14-10 14-7 13-4 12-2h20l13 3 11 6 10 9 7 12 4 12 2 10 1 10v171l-5 6-3 1h-53l-6-4-2-6-1-155-3-10-1-4-4-1h-10l-12 4-12 8-2 2-1 160-5 5-3 1h-52l-6-3-2-4-1-153-2-12-4-7-2-1h-11l-11 4-10 6-4 3-1 159-3 5-5 3h-53l-5-3-3-5-1-166-2-20-5-17v-9l5-6 38-13z" fill="#A508FE"/>
<path transform="translate(399,310)" d="m0 0h8l6 4 5 8 2 6 16-10 13-5 16-3h20l14 3 12 5 10 6 10 9 10 14 7 15 6 21 3 20 1 14v27l-2 24-5 25-6 17-8 15-9 11-11 9-16 8-17 4h-30l-14-3-11-4v77l-3 5-6 3-44 9h-10l-4-4-1-3-1-248-1-21-3-19-4-13 1-7 4-5 36-12zm52 57-10 4-6 4-6 5v115l9 4 11 2h12l9-2 6-4 6-8 4-11 2-11 1-11v-41l-3-21-4-11-6-9-6-4-4-1z" fill="#A508FE"/>
<path transform="translate(1087,310)" d="m0 0h27l19 3 12 4 13 7 9 8 9 14 5 14 2 10 1 12 1 110 3 17 6 15 1 4v7l-4 5-23 10-18 7h-8l-5-4-7-14v-2l-16 11-13 6-13 3h-27l-16-4-15-8-12-11-9-14-5-14-2-10v-26l4-17 7-14 9-11 10-8 15-8 15-5 21-4 28-2h7l-1-18-3-9-5-4-6-2h-22l-17 4-24 8-8-1-5-6-10-30-1-7 4-8 10-6 15-5 24-5zm17 140-16 3-12 6-6 7-3 10v7l3 10 5 6 7 4 4 1h10l10-4 9-6 3-3v-41z" fill="#A508FE"/>
<path transform="translate(1524,248)" d="m0 0h14l5 4 1 2 1 63 51 1 4 2 3 6-1 10-6 27-4 6-4 2h-44l1 112 2 10h15l16-5 6-2h9l5 5 10 40-1 9-7 6-12 5-16 4-15 2h-32l-15-4-11-6-7-6-7-10-6-16-3-19v-125h-31l-6-4-1-2v-41l4-5 2-1 31-1 1-56 2-4 5-3 26-4z" fill="#A508FE"/>
<path transform="translate(1304,310)" d="m0 0h6l7 6 8 16 1 5h2l2-4 7-7 13-9 12-5 9-2h16l12 3 8 5 3 4 1 5-4 13-11 30-4 6-3 2-9-1-11-3-10 1-10 6-10 9-1 1-1 153-5 5-3 1h-52l-6-3-2-4-1-151-2-21-4-17-5-15 1-8 6-5 37-15z" fill="#A508FE"/>
<path transform="translate(639,568)" d="m0 0h17l12 2 7 6 2 7-1 8-4 6-3 2 8 7 2 6v7l-3 8-5 4-5 2-9 1h-18l-1-1v-64zm12 11v16h8l4-3 1-8-4-5zm0 26v18h10l5-5v-7l-4-5z" fill="#06000A"/>
<path transform="translate(1460,565)" d="m0 0 5 1 1 66-7 3h-3l-3-4-7 4h-9l-5-3-4-5-2-5-1-14 2-11 5-8 4-3 3-1h9l4 2v-19l3-2zm-18 30-3 3-1 2v20l3 5 6 1 5-3v-27l-1-1z" fill="#0B0011"/>
<path transform="translate(960,568)" d="m0 0h32l2 1-2 9-1 1h-20v15h17l1 1v9l-1 1h-17v18h22v10l-1 1h-32l-2-1v-64z" fill="#07000A"/>
<path transform="translate(811,586)" d="m0 0h8l3 8 7 28h1l7-33 1-3h8l4 1-4 17-11 39-5 8-8 3-9-1-6-3 1-5 2-4 10 2 4-2 3-7-5-1-9-25-6-18v-3z" fill="#030004"/>
<path transform="translate(1199,585)" d="m0 0h4l1 39h8l4-1v-35l9-3 4 1 1 46-7 3-4-1-2-3-8 4h-10l-5-3-3-5v-40z" fill="#09000E"/>
<path transform="translate(734,585)" d="m0 0h4l1 37 1 2h7l4-1v-35l9-3 4 1 1 46-7 3h-4l-1-5-7 4-3 1h-9l-5-3-3-5v-40z" fill="#050008"/>
<path transform="translate(1358,585)" d="m0 0h10l8 4 4 7 2 7v10l-27 1 2 8 4 2h9l5-2h3l2 5-1 5-9 3h-13l-8-4-5-7-2-9v-9l3-10 5-7zm1 9-4 5-1 5h15l-1-8-3-2z" fill="#030005"/>
<path transform="translate(1543,564)" d="m0 0h10l14 5 16 2 3 3v19l-3 16-5 12-8 11-11 9-8 5h-6l-12-8-8-7-7-10-5-12-3-16v-19l3-3 16-2zm2 4-18 6-13 2 1 21 4 16 6 11 6 7 14 10 4 1 11-7 8-7 6-9 5-12 2-10 1-21-17-3-14-5z" fill="#FEFEFE"/>
<path transform="translate(1125,585)" d="m0 0h10l9 3 1 2-3 7-5-1h-11l-1 5 9 4 8 5 3 4 1 7-2 7-7 6-3 1h-11l-9-3-2-2 1-6 1-2 6 1 10 2 3-2-1-5-16-8-3-6v-8l4-6 5-4z" fill="#020004"/>
<path transform="translate(1049,585)" d="m0 0h10l9 3-1 7-1 2-5-1h-11l-1 5 9 4 9 6 2 4v11l-6 7-5 2h-11l-11-4 1-8 4-1 10 3 5-1 1-5-5-3-12-6-3-5v-9l4-7z" fill="#020003"/>
<path transform="translate(1283,585)" d="m0 0 3 1 3 5 5-5 2-1h7l2 1-1 6-2 5h-7l-4 3-1 33-1 1h-10l-1-1-1-31-2-13z" fill="#030005"/>
<path transform="translate(1545,587)" d="m0 0h6l1 1v11h11l1 1v7h-12v12h-8v-12h-12v-7l1-1h11v-11z" fill="#FEFEFE"/>
</svg>
