<svg width="73" height="82" viewBox="0 0 81 81" fill="none" xmlns="http://www.w3.org/2000/svg">
<path d="M61.1019 74.6377H19.8982C18.2782 74.6377 16.9632 73.324 16.9632 71.704V2.93498C16.9632 1.31372 18.2782 0 19.8982 0H61.1019C62.7219 0 64.0369 1.31372 64.0369 2.93498V71.7027C64.0369 73.324 62.7219 74.6377 61.1019 74.6377ZM22.8344 68.7677H58.1682V5.86997H22.8344V68.7677Z" fill="#010101"/>
<path d="M61.1019 30.0978H19.8982C18.2782 30.0978 16.9632 28.7841 16.9632 27.1628C16.9632 25.5416 18.2782 24.2278 19.8982 24.2278H61.1019C62.7219 24.2278 64.0369 25.5416 64.0369 27.1628C64.0369 28.7841 62.7219 30.0978 61.1019 30.0978ZM29.8042 21.0423C28.1842 21.0423 26.8692 19.7286 26.8692 18.1073V12.9676C26.8692 11.3463 28.1842 10.0326 29.8042 10.0326C31.4255 10.0326 32.7392 11.3463 32.7392 12.9676V18.1073C32.7405 19.7286 31.4255 21.0423 29.8042 21.0423ZM29.4359 50.382C27.8159 50.382 26.5022 49.0683 26.5022 47.4483V35.7007C26.5022 34.0807 27.8172 32.767 29.4359 32.767C31.0572 32.767 32.3709 34.0807 32.3709 35.7007V47.4483C32.3709 49.0683 31.0585 50.382 29.4359 50.382Z" fill="#010101"/>
<path d="M27.9918 81C26.3706 81 25.0556 79.6862 25.0556 78.065V71.7027C25.0556 70.0814 26.3706 68.7677 27.9918 68.7677C29.6118 68.7677 30.9255 70.0814 30.9255 71.7027V78.065C30.9268 79.6862 29.6118 81 27.9918 81ZM53.0094 81C51.3882 81 50.0757 79.6862 50.0757 78.065V71.7027C50.0757 70.0814 51.3894 68.7677 53.0094 68.7677C54.6294 68.7677 55.9444 70.0814 55.9444 71.7027V78.065C55.9444 79.6862 54.6294 81 53.0094 81Z" fill="#010101"/>
</svg>