<svg width="73" height="82" viewBox="0 0 96 96" fill="none" xmlns="http://www.w3.org/2000/svg">
<path d="M56.8215 10.8719C56.8215 15.7355 52.8636 19.6925 48 19.6925C43.1365 19.6925 39.1795 15.7355 39.1795 10.8719H33.0255C33.0255 19.1283 39.7435 25.8463 47.9999 25.8463C56.2574 25.8463 62.9742 19.1283 62.9753 10.8719H56.8215Z" fill="black"/>
<path d="M95.2347 32.1232L80.4697 15.3067C76.2923 10.5324 70.2523 7.79492 63.8974 7.79492H32.2052C25.8514 7.79492 19.8104 10.5324 15.6432 15.2955L0.771546 32.116C0.495358 32.4289 0.285589 32.7945 0.154959 33.1909C0.0243291 33.5872 -0.0244389 34.006 0.0116124 34.4217C0.047989 34.8373 0.168485 35.2412 0.365779 35.6088C0.563073 35.9764 0.833046 36.3001 1.15929 36.5601L13.7746 46.6114C14.3286 47.0526 15.0178 47.2892 15.7259 47.2814C16.434 47.2735 17.1178 47.0217 17.6618 46.5683L19.9572 44.6554L19.6926 85.1077C19.6901 85.5134 19.7677 85.9157 19.9212 86.2913C20.0747 86.667 20.301 87.0085 20.587 87.2964C20.8728 87.5845 21.2127 87.8131 21.5873 87.969C21.9619 88.125 22.3637 88.2052 22.7695 88.205H73.1282C73.5339 88.2051 73.9356 88.125 74.3102 87.9692C74.6847 87.8134 75.0248 87.5851 75.3107 87.2973C75.5966 87.0094 75.8228 86.6678 75.9763 86.2922C76.1298 85.9166 76.2075 85.5144 76.2051 85.1086L75.9353 43.7897L80.4604 46.7732C81.0366 47.1536 81.724 47.3289 82.412 47.2711C83.1 47.2132 83.7485 46.9255 84.2531 46.4543L95.0223 36.403C96.2388 35.2677 96.332 33.3734 95.2347 32.1232ZM81.8244 40.3026L74.5136 35.4822C74.0483 35.1757 73.5086 35.0012 72.9519 34.9775C72.3952 34.9537 71.8425 35.0815 71.3528 35.3473C70.8631 35.6131 70.4547 36.0068 70.1712 36.4865C69.8878 36.9662 69.7399 37.5138 69.7433 38.071L70.0305 82.0514H25.8668L26.1541 38.071C26.1577 37.4845 25.9937 36.9092 25.6814 36.4128C25.369 35.9164 24.9213 35.5195 24.391 35.269C23.8607 35.0181 23.2697 34.9241 22.6878 34.9983C22.1059 35.0724 21.5573 35.3116 21.107 35.6875L15.6485 40.2363L7.52751 33.7655L20.2649 19.3593C23.2741 15.9213 27.6259 13.949 32.2054 13.949H63.8976C68.478 13.949 72.8299 15.9213 75.8423 19.3634L88.6411 33.9408L81.8244 40.3026Z" fill="black"/>
<path d="M62.358 33.5386H53.4348C51.7353 33.5386 50.358 34.9159 50.358 36.6154V45.5386C50.3581 46.0422 50.4818 46.5381 50.7182 46.9828C50.9546 47.4275 51.2964 47.8074 51.7138 48.0893L56.1251 51.0636C56.6334 51.4068 57.2328 51.5901 57.8462 51.5897C58.437 51.5897 59.0267 51.4204 59.5395 51.082L64.0513 48.1077C64.4764 47.8273 64.8254 47.4458 65.0668 46.9974C65.3083 46.549 65.4348 46.0477 65.4348 45.5384V36.6153C65.4348 34.9159 64.0575 33.5386 62.358 33.5386ZM59.282 43.8811L57.8657 44.8144L56.5128 43.9017V39.6925H59.282V43.8811Z" fill="black"/>
</svg>