<svg width="73" height="82" viewBox="0 0 73 82" fill="none" xmlns="http://www.w3.org/2000/svg">
<path d="M71.1031 34.0327C71.1031 33.7035 70.9732 33.3878 70.7421 33.155C70.511 32.9222 70.1976 32.7915 69.8707 32.7915H64.3417V6.98262C64.3439 5.39956 63.7221 3.88034 62.6131 2.75862C61.504 1.63689 59.9982 1.00438 58.4265 1L13.6766 1C12.1048 1.00438 10.5991 1.63689 9.48999 2.75862C8.38091 3.88034 7.75919 5.39956 7.76138 6.98262V33.0976H2.23233C1.90549 33.0976 1.59205 33.2284 1.36094 33.4612C1.12983 33.694 1 34.0097 1 34.3389L1 70.6731C1 71.0023 1.12983 71.318 1.36094 71.5508C1.59205 71.7836 1.90549 71.9144 2.23233 71.9144H7.76138V79.7588C7.76138 80.088 7.89121 80.4037 8.12232 80.6365C8.35342 80.8692 8.66687 81 8.9937 81H18.0308C18.3576 81 18.6711 80.8692 18.9022 80.6365C19.1333 80.4037 19.2631 80.088 19.2631 79.7588V71.9144H52.8564V79.7588C52.8564 80.088 52.9862 80.4037 53.2173 80.6365C53.4484 80.8692 53.7619 81 54.0887 81H63.1258C63.4526 81 63.7661 80.8692 63.9972 80.6365C64.2283 80.4037 64.3581 80.088 64.3581 79.7588V71.9144H69.8872C70.214 71.9144 70.5274 71.7836 70.7586 71.5508C70.9897 71.318 71.1195 71.0023 71.1195 70.6731V52.4688C71.0989 52.3678 71.0989 52.2636 71.1195 52.1626L71.1031 34.0327ZM68.6384 50.9628H57.5721V35.2408H68.6384V50.9628ZM10.226 6.98262C10.2238 6.05793 10.5859 5.17012 11.2328 4.51394C11.8796 3.85776 12.7585 3.4868 13.6766 3.48242H58.4265C59.3446 3.4868 60.2234 3.85776 60.8703 4.51394C61.5172 5.17012 61.8792 6.05793 61.877 6.98262V32.7915H56.3398C56.0129 32.7915 55.6995 32.9222 55.4684 33.155C55.2373 33.3878 55.1074 33.7035 55.1074 34.0327V51.2607H16.9956V34.3389C16.9956 34.0097 16.8658 33.694 16.6347 33.4612C16.4036 33.2284 16.0901 33.0976 15.7633 33.0976H10.226V6.98262ZM3.46466 35.5801H14.531V51.302H3.46466V35.5801ZM16.782 78.5176H10.2096V71.8978H16.782V78.5176ZM61.877 78.5176H55.3046V71.8978H61.877V78.5176ZM68.6384 69.4154H3.46466V53.6934H68.6384V69.4154Z" fill="black" stroke="black" stroke-width="2"/>
</svg>