<svg width="73" height="82" viewBox="0 0 57 85" fill="none" xmlns="http://www.w3.org/2000/svg">
<path d="M42.5 0H14.1667C10.4094 0 6.80609 1.49256 4.14932 4.14932C1.49256 6.80609 0 10.4094 0 14.1667V70.8333C0 74.5906 1.49256 78.1939 4.14932 80.8507C6.80609 83.5074 10.4094 85 14.1667 85H42.5C46.2573 85 49.8606 83.5074 52.5174 80.8507C55.1741 78.1939 56.6667 74.5906 56.6667 70.8333V14.1667C56.6667 10.4094 55.1741 6.80609 52.5174 4.14932C49.8606 1.49256 46.2573 0 42.5 0ZM49.5834 70.8333C49.5834 72.712 48.8371 74.5136 47.5087 75.842C46.1803 77.1704 44.3786 77.9167 42.5 77.9167H14.1667C12.2881 77.9167 10.4864 77.1704 9.158 75.842C7.82962 74.5136 7.08334 72.712 7.08334 70.8333V14.1667C7.08334 12.288 7.82962 10.4864 9.158 9.15799C10.4864 7.82961 12.2881 7.08333 14.1667 7.08333H42.5C44.3786 7.08333 46.1803 7.82961 47.5087 9.15799C48.8371 10.4864 49.5834 12.288 49.5834 14.1667V70.8333Z" fill="black"/>
<path d="M35.7083 67H21.5417C20.6024 67 19.7015 67.3731 19.0373 68.0373C18.3731 68.7015 18 69.6024 18 70.5417C18 71.481 18.3731 72.3818 19.0373 73.046C19.7015 73.7102 20.6024 74.0833 21.5417 74.0833H35.7083C36.6477 74.0833 37.5485 73.7102 38.2127 73.046C38.8769 72.3818 39.25 71.481 39.25 70.5417C39.25 69.6024 38.8769 68.7015 38.2127 68.0373C37.5485 67.3731 36.6477 67 35.7083 67Z" fill="black"/>
</svg>