<svg width="73" height="82" viewBox="0 0 52 77" fill="none" xmlns="http://www.w3.org/2000/svg">
<path d="M51.3333 38.5C51.3333 30.3508 47.5154 23.0679 41.58 18.3837L39.3983 5.35792C38.885 2.27792 36.19 0 33.0779 0H18.2875C15.1433 0 12.4483 2.27792 11.935 5.35792L9.78542 18.3837C3.81792 23.0679 0 30.3187 0 38.5C0 46.6812 3.81792 53.9321 9.78542 58.6162L11.935 71.6421C12.4483 74.7221 15.1433 77 18.2875 77H33.0779C36.2221 77 38.885 74.7221 39.3983 71.6421L41.58 58.6162C47.5154 53.9321 51.3333 46.6492 51.3333 38.5ZM6.41667 38.5C6.41667 27.8804 15.0471 19.25 25.6667 19.25C36.2863 19.25 44.9167 27.8804 44.9167 38.5C44.9167 49.1196 36.2863 57.75 25.6667 57.75C15.0471 57.75 6.41667 49.1196 6.41667 38.5Z" fill="black"/>
</svg>